<mxfile host="app.diagrams.net" modified="2023-09-19T14:48:49.491Z" agent="Mozilla/5.0 (Windows NT 10.0; Win64; x64) AppleWebKit/537.36 (KHTML, like Gecko) Chrome/116.0.0.0 Safari/537.36 OPR/102.0.0.0" etag="tieSN8MaAaISVED8aVVK" version="21.7.5" type="github" pages="3">
  <diagram name="Page-1" id="W3-Q7zqjhLUKa1q0KoxK">
    <mxGraphModel dx="-87" dy="461" grid="1" gridSize="10" guides="1" tooltips="1" connect="1" arrows="1" fold="1" page="1" pageScale="1" pageWidth="827" pageHeight="1169" math="0" shadow="0">
      <root>
        <mxCell id="0" />
        <mxCell id="1" parent="0" />
        <mxCell id="MscgL50pHXUSEDSrOaUT-1" value="" style="rounded=0;whiteSpace=wrap;html=1;" parent="1" vertex="1">
          <mxGeometry x="920" y="120" width="240" height="520" as="geometry" />
        </mxCell>
        <mxCell id="68ac-YHdikxbnGAt6BPG-159" value="User" style="shape=umlActor;verticalLabelPosition=bottom;verticalAlign=top;html=1;" parent="1" vertex="1">
          <mxGeometry x="870" y="560" width="20" height="40" as="geometry" />
        </mxCell>
        <mxCell id="68ac-YHdikxbnGAt6BPG-160" value="&lt;font style=&quot;font-size: 10px;&quot;&gt;Packages&lt;/font&gt;" style="ellipse;whiteSpace=wrap;html=1;" parent="1" vertex="1">
          <mxGeometry x="980" y="140" width="120" height="40" as="geometry" />
        </mxCell>
        <mxCell id="68ac-YHdikxbnGAt6BPG-161" value="&lt;font style=&quot;font-size: 10px;&quot;&gt;Appointments&lt;/font&gt;" style="ellipse;whiteSpace=wrap;html=1;" parent="1" vertex="1">
          <mxGeometry x="980" y="200" width="120" height="40" as="geometry" />
        </mxCell>
        <mxCell id="68ac-YHdikxbnGAt6BPG-162" value="&lt;font style=&quot;font-size: 10px;&quot;&gt;Galleries&lt;/font&gt;" style="ellipse;whiteSpace=wrap;html=1;" parent="1" vertex="1">
          <mxGeometry x="980" y="260" width="120" height="40" as="geometry" />
        </mxCell>
        <mxCell id="68ac-YHdikxbnGAt6BPG-164" value="&lt;font style=&quot;font-size: 10px;&quot;&gt;Contacts&lt;/font&gt;" style="ellipse;whiteSpace=wrap;html=1;" parent="1" vertex="1">
          <mxGeometry x="980" y="320" width="120" height="40" as="geometry" />
        </mxCell>
        <mxCell id="68ac-YHdikxbnGAt6BPG-165" value="&lt;font style=&quot;font-size: 10px;&quot;&gt;Testimonies&lt;/font&gt;" style="ellipse;whiteSpace=wrap;html=1;" parent="1" vertex="1">
          <mxGeometry x="980" y="440" width="120" height="40" as="geometry" />
        </mxCell>
        <mxCell id="68ac-YHdikxbnGAt6BPG-167" value="Visitor" style="shape=umlActor;verticalLabelPosition=bottom;verticalAlign=top;html=1;" parent="1" vertex="1">
          <mxGeometry x="870" y="280" width="20" height="40" as="geometry" />
        </mxCell>
        <mxCell id="68ac-YHdikxbnGAt6BPG-168" value="" style="endArrow=classic;html=1;rounded=0;exitX=1;exitY=0.3333333333333333;exitDx=0;exitDy=0;exitPerimeter=0;entryX=0;entryY=0.5;entryDx=0;entryDy=0;" parent="1" source="68ac-YHdikxbnGAt6BPG-167" target="68ac-YHdikxbnGAt6BPG-160" edge="1">
          <mxGeometry width="50" height="50" relative="1" as="geometry">
            <mxPoint x="900" y="290" as="sourcePoint" />
            <mxPoint x="950" y="240" as="targetPoint" />
          </mxGeometry>
        </mxCell>
        <mxCell id="68ac-YHdikxbnGAt6BPG-169" value="" style="endArrow=classic;html=1;rounded=0;entryX=0;entryY=0.5;entryDx=0;entryDy=0;exitX=1;exitY=0.3333333333333333;exitDx=0;exitDy=0;exitPerimeter=0;" parent="1" source="68ac-YHdikxbnGAt6BPG-167" target="68ac-YHdikxbnGAt6BPG-161" edge="1">
          <mxGeometry width="50" height="50" relative="1" as="geometry">
            <mxPoint x="890" y="290" as="sourcePoint" />
            <mxPoint x="1010" y="180" as="targetPoint" />
          </mxGeometry>
        </mxCell>
        <mxCell id="68ac-YHdikxbnGAt6BPG-170" value="" style="endArrow=classic;html=1;rounded=0;entryX=0;entryY=0.5;entryDx=0;entryDy=0;exitX=1;exitY=0.3333333333333333;exitDx=0;exitDy=0;exitPerimeter=0;" parent="1" source="68ac-YHdikxbnGAt6BPG-167" target="68ac-YHdikxbnGAt6BPG-162" edge="1">
          <mxGeometry width="50" height="50" relative="1" as="geometry">
            <mxPoint x="890" y="290" as="sourcePoint" />
            <mxPoint x="1020" y="190" as="targetPoint" />
          </mxGeometry>
        </mxCell>
        <mxCell id="68ac-YHdikxbnGAt6BPG-171" value="" style="endArrow=classic;html=1;rounded=0;exitX=1;exitY=0.3333333333333333;exitDx=0;exitDy=0;exitPerimeter=0;entryX=0;entryY=0.5;entryDx=0;entryDy=0;" parent="1" source="68ac-YHdikxbnGAt6BPG-167" target="68ac-YHdikxbnGAt6BPG-164" edge="1">
          <mxGeometry width="50" height="50" relative="1" as="geometry">
            <mxPoint x="920" y="323" as="sourcePoint" />
            <mxPoint x="1030" y="200" as="targetPoint" />
          </mxGeometry>
        </mxCell>
        <mxCell id="68ac-YHdikxbnGAt6BPG-172" value="" style="endArrow=classic;html=1;rounded=0;exitX=1;exitY=0.3333333333333333;exitDx=0;exitDy=0;exitPerimeter=0;entryX=0;entryY=0.5;entryDx=0;entryDy=0;" parent="1" source="68ac-YHdikxbnGAt6BPG-167" target="68ac-YHdikxbnGAt6BPG-165" edge="1">
          <mxGeometry width="50" height="50" relative="1" as="geometry">
            <mxPoint x="930" y="333" as="sourcePoint" />
            <mxPoint x="1010" y="360" as="targetPoint" />
          </mxGeometry>
        </mxCell>
        <mxCell id="68ac-YHdikxbnGAt6BPG-173" value="&lt;font style=&quot;font-size: 10px;&quot;&gt;Articles&lt;/font&gt;" style="ellipse;whiteSpace=wrap;html=1;" parent="1" vertex="1">
          <mxGeometry x="980" y="380" width="120" height="40" as="geometry" />
        </mxCell>
        <mxCell id="68ac-YHdikxbnGAt6BPG-174" value="" style="endArrow=classic;html=1;rounded=0;entryX=0;entryY=0.5;entryDx=0;entryDy=0;exitX=1;exitY=0.3333333333333333;exitDx=0;exitDy=0;exitPerimeter=0;" parent="1" source="68ac-YHdikxbnGAt6BPG-167" target="68ac-YHdikxbnGAt6BPG-173" edge="1">
          <mxGeometry width="50" height="50" relative="1" as="geometry">
            <mxPoint x="900" y="300" as="sourcePoint" />
            <mxPoint x="990" y="330" as="targetPoint" />
          </mxGeometry>
        </mxCell>
        <mxCell id="68ac-YHdikxbnGAt6BPG-175" value="&lt;font style=&quot;font-size: 10px;&quot;&gt;Transactions&lt;/font&gt;" style="ellipse;whiteSpace=wrap;html=1;" parent="1" vertex="1">
          <mxGeometry x="980" y="500" width="120" height="40" as="geometry" />
        </mxCell>
        <mxCell id="68ac-YHdikxbnGAt6BPG-176" value="Admin" style="shape=umlActor;verticalLabelPosition=bottom;verticalAlign=top;html=1;" parent="1" vertex="1">
          <mxGeometry x="1210" y="360" width="20" height="40" as="geometry" />
        </mxCell>
        <mxCell id="68ac-YHdikxbnGAt6BPG-178" value="" style="endArrow=classic;html=1;rounded=0;entryX=0;entryY=0.5;entryDx=0;entryDy=0;exitX=1;exitY=0.3333333333333333;exitDx=0;exitDy=0;exitPerimeter=0;" parent="1" source="68ac-YHdikxbnGAt6BPG-159" target="68ac-YHdikxbnGAt6BPG-175" edge="1">
          <mxGeometry width="50" height="50" relative="1" as="geometry">
            <mxPoint x="900" y="583" as="sourcePoint" />
            <mxPoint x="990" y="590" as="targetPoint" />
          </mxGeometry>
        </mxCell>
        <mxCell id="68ac-YHdikxbnGAt6BPG-179" value="" style="endArrow=classic;html=1;rounded=0;entryX=0;entryY=0.5;entryDx=0;entryDy=0;exitX=1;exitY=0.3333333333333333;exitDx=0;exitDy=0;exitPerimeter=0;" parent="1" source="68ac-YHdikxbnGAt6BPG-159" target="68ac-YHdikxbnGAt6BPG-165" edge="1">
          <mxGeometry width="50" height="50" relative="1" as="geometry">
            <mxPoint x="900" y="583" as="sourcePoint" />
            <mxPoint x="990" y="590" as="targetPoint" />
          </mxGeometry>
        </mxCell>
        <mxCell id="68ac-YHdikxbnGAt6BPG-180" value="" style="endArrow=classic;html=1;rounded=0;entryX=1;entryY=0.5;entryDx=0;entryDy=0;exitX=0;exitY=0.3333333333333333;exitDx=0;exitDy=0;exitPerimeter=0;" parent="1" source="68ac-YHdikxbnGAt6BPG-176" target="68ac-YHdikxbnGAt6BPG-160" edge="1">
          <mxGeometry width="50" height="50" relative="1" as="geometry">
            <mxPoint x="1260" y="330" as="sourcePoint" />
            <mxPoint x="1310" y="280" as="targetPoint" />
          </mxGeometry>
        </mxCell>
        <mxCell id="68ac-YHdikxbnGAt6BPG-181" value="" style="endArrow=classic;html=1;rounded=0;entryX=1;entryY=0.5;entryDx=0;entryDy=0;exitX=0;exitY=0.3333333333333333;exitDx=0;exitDy=0;exitPerimeter=0;" parent="1" source="68ac-YHdikxbnGAt6BPG-176" target="68ac-YHdikxbnGAt6BPG-165" edge="1">
          <mxGeometry width="50" height="50" relative="1" as="geometry">
            <mxPoint x="1270" y="340" as="sourcePoint" />
            <mxPoint x="1110" y="170" as="targetPoint" />
          </mxGeometry>
        </mxCell>
        <mxCell id="68ac-YHdikxbnGAt6BPG-182" value="" style="endArrow=classic;html=1;rounded=0;entryX=0;entryY=0.5;entryDx=0;entryDy=0;exitX=1;exitY=0.3333333333333333;exitDx=0;exitDy=0;exitPerimeter=0;" parent="1" source="68ac-YHdikxbnGAt6BPG-159" target="68ac-YHdikxbnGAt6BPG-160" edge="1">
          <mxGeometry width="50" height="50" relative="1" as="geometry">
            <mxPoint x="880" y="550" as="sourcePoint" />
            <mxPoint x="990" y="170" as="targetPoint" />
          </mxGeometry>
        </mxCell>
        <mxCell id="68ac-YHdikxbnGAt6BPG-183" value="" style="endArrow=classic;html=1;rounded=0;entryX=0;entryY=0.5;entryDx=0;entryDy=0;exitX=1;exitY=0.3333333333333333;exitDx=0;exitDy=0;exitPerimeter=0;" parent="1" source="68ac-YHdikxbnGAt6BPG-159" target="68ac-YHdikxbnGAt6BPG-161" edge="1">
          <mxGeometry width="50" height="50" relative="1" as="geometry">
            <mxPoint x="900" y="303" as="sourcePoint" />
            <mxPoint x="990" y="230" as="targetPoint" />
          </mxGeometry>
        </mxCell>
        <mxCell id="68ac-YHdikxbnGAt6BPG-184" value="" style="endArrow=classic;html=1;rounded=0;entryX=0;entryY=0.5;entryDx=0;entryDy=0;exitX=1;exitY=0.3333333333333333;exitDx=0;exitDy=0;exitPerimeter=0;" parent="1" source="68ac-YHdikxbnGAt6BPG-159" target="68ac-YHdikxbnGAt6BPG-162" edge="1">
          <mxGeometry width="50" height="50" relative="1" as="geometry">
            <mxPoint x="880" y="550" as="sourcePoint" />
            <mxPoint x="990" y="290" as="targetPoint" />
          </mxGeometry>
        </mxCell>
        <mxCell id="68ac-YHdikxbnGAt6BPG-185" value="" style="endArrow=classic;html=1;rounded=0;entryX=0;entryY=0.5;entryDx=0;entryDy=0;exitX=1;exitY=0.3333333333333333;exitDx=0;exitDy=0;exitPerimeter=0;" parent="1" source="68ac-YHdikxbnGAt6BPG-159" target="68ac-YHdikxbnGAt6BPG-164" edge="1">
          <mxGeometry width="50" height="50" relative="1" as="geometry">
            <mxPoint x="880" y="550" as="sourcePoint" />
            <mxPoint x="990" y="350" as="targetPoint" />
          </mxGeometry>
        </mxCell>
        <mxCell id="68ac-YHdikxbnGAt6BPG-186" value="" style="endArrow=classic;html=1;rounded=0;entryX=0;entryY=0.5;entryDx=0;entryDy=0;exitX=1;exitY=0.3333333333333333;exitDx=0;exitDy=0;exitPerimeter=0;" parent="1" source="68ac-YHdikxbnGAt6BPG-159" target="68ac-YHdikxbnGAt6BPG-173" edge="1">
          <mxGeometry width="50" height="50" relative="1" as="geometry">
            <mxPoint x="880" y="550" as="sourcePoint" />
            <mxPoint x="990" y="410" as="targetPoint" />
          </mxGeometry>
        </mxCell>
        <mxCell id="68ac-YHdikxbnGAt6BPG-187" value="" style="endArrow=classic;html=1;rounded=0;entryX=0;entryY=0.5;entryDx=0;entryDy=0;exitX=1;exitY=0.3333333333333333;exitDx=0;exitDy=0;exitPerimeter=0;" parent="1" source="68ac-YHdikxbnGAt6BPG-159" edge="1">
          <mxGeometry width="50" height="50" relative="1" as="geometry">
            <mxPoint x="880" y="550" as="sourcePoint" />
            <mxPoint x="980" y="400" as="targetPoint" />
          </mxGeometry>
        </mxCell>
        <mxCell id="68ac-YHdikxbnGAt6BPG-188" value="" style="endArrow=classic;html=1;rounded=0;entryX=0;entryY=0.5;entryDx=0;entryDy=0;exitX=1;exitY=0.3333333333333333;exitDx=0;exitDy=0;exitPerimeter=0;" parent="1" source="68ac-YHdikxbnGAt6BPG-159" edge="1">
          <mxGeometry width="50" height="50" relative="1" as="geometry">
            <mxPoint x="880" y="550" as="sourcePoint" />
            <mxPoint x="980" y="340" as="targetPoint" />
          </mxGeometry>
        </mxCell>
        <mxCell id="68ac-YHdikxbnGAt6BPG-189" value="" style="endArrow=classic;html=1;rounded=0;entryX=0;entryY=0.5;entryDx=0;entryDy=0;exitX=1;exitY=0.3333333333333333;exitDx=0;exitDy=0;exitPerimeter=0;" parent="1" source="68ac-YHdikxbnGAt6BPG-159" edge="1">
          <mxGeometry width="50" height="50" relative="1" as="geometry">
            <mxPoint x="880" y="550" as="sourcePoint" />
            <mxPoint x="980" y="340" as="targetPoint" />
          </mxGeometry>
        </mxCell>
        <mxCell id="68ac-YHdikxbnGAt6BPG-190" value="" style="endArrow=classic;html=1;rounded=0;entryX=1;entryY=0.5;entryDx=0;entryDy=0;exitX=0;exitY=0.3333333333333333;exitDx=0;exitDy=0;exitPerimeter=0;" parent="1" source="68ac-YHdikxbnGAt6BPG-176" target="68ac-YHdikxbnGAt6BPG-161" edge="1">
          <mxGeometry width="50" height="50" relative="1" as="geometry">
            <mxPoint x="1290" y="353" as="sourcePoint" />
            <mxPoint x="1110" y="170" as="targetPoint" />
          </mxGeometry>
        </mxCell>
        <mxCell id="68ac-YHdikxbnGAt6BPG-191" value="" style="endArrow=classic;html=1;rounded=0;entryX=1;entryY=0.5;entryDx=0;entryDy=0;exitX=0;exitY=0.3333333333333333;exitDx=0;exitDy=0;exitPerimeter=0;" parent="1" source="68ac-YHdikxbnGAt6BPG-176" target="68ac-YHdikxbnGAt6BPG-162" edge="1">
          <mxGeometry width="50" height="50" relative="1" as="geometry">
            <mxPoint x="1300" y="363" as="sourcePoint" />
            <mxPoint x="1120" y="180" as="targetPoint" />
          </mxGeometry>
        </mxCell>
        <mxCell id="68ac-YHdikxbnGAt6BPG-192" value="" style="endArrow=classic;html=1;rounded=0;entryX=1;entryY=0.5;entryDx=0;entryDy=0;exitX=0;exitY=0.3333333333333333;exitDx=0;exitDy=0;exitPerimeter=0;" parent="1" source="68ac-YHdikxbnGAt6BPG-176" target="68ac-YHdikxbnGAt6BPG-164" edge="1">
          <mxGeometry width="50" height="50" relative="1" as="geometry">
            <mxPoint x="1310" y="373" as="sourcePoint" />
            <mxPoint x="1130" y="190" as="targetPoint" />
          </mxGeometry>
        </mxCell>
        <mxCell id="68ac-YHdikxbnGAt6BPG-193" value="" style="endArrow=classic;html=1;rounded=0;entryX=1;entryY=0.5;entryDx=0;entryDy=0;exitX=0;exitY=0.3333333333333333;exitDx=0;exitDy=0;exitPerimeter=0;" parent="1" source="68ac-YHdikxbnGAt6BPG-176" target="68ac-YHdikxbnGAt6BPG-173" edge="1">
          <mxGeometry width="50" height="50" relative="1" as="geometry">
            <mxPoint x="1320" y="383" as="sourcePoint" />
            <mxPoint x="1140" y="200" as="targetPoint" />
          </mxGeometry>
        </mxCell>
        <mxCell id="68ac-YHdikxbnGAt6BPG-195" value="" style="endArrow=classic;html=1;rounded=0;entryX=0.984;entryY=0.456;entryDx=0;entryDy=0;exitX=0;exitY=0.3333333333333333;exitDx=0;exitDy=0;exitPerimeter=0;entryPerimeter=0;" parent="1" source="68ac-YHdikxbnGAt6BPG-176" target="68ac-YHdikxbnGAt6BPG-175" edge="1">
          <mxGeometry width="50" height="50" relative="1" as="geometry">
            <mxPoint x="1350" y="413" as="sourcePoint" />
            <mxPoint x="1170" y="230" as="targetPoint" />
          </mxGeometry>
        </mxCell>
        <mxCell id="68ac-YHdikxbnGAt6BPG-196" value="&lt;font style=&quot;font-size: 10px;&quot;&gt;User&lt;/font&gt;" style="ellipse;whiteSpace=wrap;html=1;" parent="1" vertex="1">
          <mxGeometry x="980" y="560" width="120" height="40" as="geometry" />
        </mxCell>
        <mxCell id="JkCuVldubkpU6-L07YxO-3" value="" style="endArrow=classic;html=1;rounded=0;entryX=1;entryY=0.5;entryDx=0;entryDy=0;exitX=0;exitY=0.3333333333333333;exitDx=0;exitDy=0;exitPerimeter=0;" parent="1" source="68ac-YHdikxbnGAt6BPG-176" target="68ac-YHdikxbnGAt6BPG-196" edge="1">
          <mxGeometry width="50" height="50" relative="1" as="geometry">
            <mxPoint x="1230" y="370" as="sourcePoint" />
            <mxPoint x="1110" y="590" as="targetPoint" />
          </mxGeometry>
        </mxCell>
      </root>
    </mxGraphModel>
  </diagram>
  <diagram id="ctuZIe3_9bELi5qZTH8a" name="admin">
    <mxGraphModel dx="883" dy="468" grid="1" gridSize="10" guides="1" tooltips="1" connect="1" arrows="1" fold="1" page="1" pageScale="1" pageWidth="850" pageHeight="1100" math="0" shadow="0">
      <root>
        <mxCell id="0" />
        <mxCell id="1" parent="0" />
        <mxCell id="uciX4Eg7__3NdHYNUk7G-22" value="" style="rounded=0;whiteSpace=wrap;html=1;" vertex="1" parent="1">
          <mxGeometry x="120" y="110" width="350" height="630" as="geometry" />
        </mxCell>
        <mxCell id="CpuPMyb-1w2UGZgQBSjq-10" style="rounded=0;orthogonalLoop=1;jettySize=auto;html=1;entryX=0;entryY=0.5;entryDx=0;entryDy=0;exitX=1;exitY=0.3333333333333333;exitDx=0;exitDy=0;exitPerimeter=0;endArrow=none;endFill=0;fontSize=10;" parent="1" source="p_7tX5edI_VlVgQaroJx-1" target="CpuPMyb-1w2UGZgQBSjq-1" edge="1">
          <mxGeometry relative="1" as="geometry">
            <mxPoint x="180" y="186.66666666666663" as="sourcePoint" />
          </mxGeometry>
        </mxCell>
        <mxCell id="CpuPMyb-1w2UGZgQBSjq-21" style="rounded=0;orthogonalLoop=1;jettySize=auto;html=1;exitX=1;exitY=0.3333333333333333;exitDx=0;exitDy=0;exitPerimeter=0;entryX=0;entryY=0.5;entryDx=0;entryDy=0;endArrow=none;endFill=0;fontSize=10;" parent="1" source="p_7tX5edI_VlVgQaroJx-1" target="CpuPMyb-1w2UGZgQBSjq-11" edge="1">
          <mxGeometry relative="1" as="geometry" />
        </mxCell>
        <mxCell id="CpuPMyb-1w2UGZgQBSjq-29" style="rounded=0;orthogonalLoop=1;jettySize=auto;html=1;exitX=1;exitY=0.3333333333333333;exitDx=0;exitDy=0;exitPerimeter=0;entryX=0;entryY=0.5;entryDx=0;entryDy=0;endArrow=none;endFill=0;fontSize=10;" parent="1" source="p_7tX5edI_VlVgQaroJx-1" target="CpuPMyb-1w2UGZgQBSjq-28" edge="1">
          <mxGeometry relative="1" as="geometry" />
        </mxCell>
        <mxCell id="p_7tX5edI_VlVgQaroJx-1" value="Admin" style="shape=umlActor;verticalLabelPosition=bottom;verticalAlign=top;html=1;outlineConnect=0;fontSize=10;" parent="1" vertex="1">
          <mxGeometry x="60" y="240" width="40" height="80" as="geometry" />
        </mxCell>
        <mxCell id="CpuPMyb-1w2UGZgQBSjq-1" value="Login" style="ellipse;whiteSpace=wrap;html=1;fontSize=10;" parent="1" vertex="1">
          <mxGeometry x="200" y="120" width="80" height="40" as="geometry" />
        </mxCell>
        <mxCell id="CpuPMyb-1w2UGZgQBSjq-7" value="Logout" style="ellipse;whiteSpace=wrap;html=1;fontSize=10;" parent="1" vertex="1">
          <mxGeometry x="360" y="120" width="80" height="40" as="geometry" />
        </mxCell>
        <mxCell id="CpuPMyb-1w2UGZgQBSjq-8" value="" style="endArrow=classic;html=1;rounded=0;dashed=1;entryX=0;entryY=0.5;entryDx=0;entryDy=0;fontSize=10;" parent="1" target="CpuPMyb-1w2UGZgQBSjq-7" edge="1">
          <mxGeometry width="50" height="50" relative="1" as="geometry">
            <mxPoint x="280" y="140" as="sourcePoint" />
            <mxPoint x="330" y="100" as="targetPoint" />
          </mxGeometry>
        </mxCell>
        <mxCell id="CpuPMyb-1w2UGZgQBSjq-9" value="&amp;lt;&amp;lt;include&amp;gt;&amp;gt;" style="text;html=1;align=center;verticalAlign=middle;resizable=0;points=[];autosize=1;strokeColor=none;fillColor=none;fontSize=10;" parent="1" vertex="1">
          <mxGeometry x="280" y="108" width="80" height="30" as="geometry" />
        </mxCell>
        <mxCell id="CpuPMyb-1w2UGZgQBSjq-11" value="Lihat Data Paket Wedding" style="ellipse;whiteSpace=wrap;html=1;fontSize=10;" parent="1" vertex="1">
          <mxGeometry x="200" y="220" width="80" height="40" as="geometry" />
        </mxCell>
        <mxCell id="CpuPMyb-1w2UGZgQBSjq-12" value="Tambah Data Paket Wedding" style="ellipse;whiteSpace=wrap;html=1;fontSize=10;" parent="1" vertex="1">
          <mxGeometry x="285" y="150" width="80" height="40" as="geometry" />
        </mxCell>
        <mxCell id="CpuPMyb-1w2UGZgQBSjq-13" value="" style="endArrow=classic;html=1;rounded=0;dashed=1;entryX=0;entryY=0.5;entryDx=0;entryDy=0;fontSize=10;" parent="1" target="CpuPMyb-1w2UGZgQBSjq-12" edge="1">
          <mxGeometry width="50" height="50" relative="1" as="geometry">
            <mxPoint x="240" y="220" as="sourcePoint" />
            <mxPoint x="280" y="170" as="targetPoint" />
          </mxGeometry>
        </mxCell>
        <mxCell id="CpuPMyb-1w2UGZgQBSjq-14" value="&amp;lt;&amp;lt;include&amp;gt;&amp;gt;" style="text;html=1;align=center;verticalAlign=middle;resizable=0;points=[];autosize=1;strokeColor=none;fillColor=none;fontSize=10;" parent="1" vertex="1">
          <mxGeometry x="195" y="178" width="80" height="30" as="geometry" />
        </mxCell>
        <mxCell id="CpuPMyb-1w2UGZgQBSjq-15" value="Edit Data Paket Wedding" style="ellipse;whiteSpace=wrap;html=1;fontSize=10;" parent="1" vertex="1">
          <mxGeometry x="360" y="180" width="80" height="40" as="geometry" />
        </mxCell>
        <mxCell id="CpuPMyb-1w2UGZgQBSjq-16" value="" style="endArrow=classic;html=1;rounded=0;dashed=1;entryX=0;entryY=0.5;entryDx=0;entryDy=0;fontSize=10;" parent="1" target="CpuPMyb-1w2UGZgQBSjq-15" edge="1">
          <mxGeometry width="50" height="50" relative="1" as="geometry">
            <mxPoint x="280" y="240" as="sourcePoint" />
            <mxPoint x="330" y="200" as="targetPoint" />
          </mxGeometry>
        </mxCell>
        <mxCell id="CpuPMyb-1w2UGZgQBSjq-17" value="&amp;lt;&amp;lt;include&amp;gt;&amp;gt;" style="text;html=1;align=center;verticalAlign=middle;resizable=0;points=[];autosize=1;strokeColor=none;fillColor=none;fontSize=10;" parent="1" vertex="1">
          <mxGeometry x="265" y="190" width="80" height="30" as="geometry" />
        </mxCell>
        <mxCell id="CpuPMyb-1w2UGZgQBSjq-18" value="Hapus Data Paket Wedding" style="ellipse;whiteSpace=wrap;html=1;fontSize=10;" parent="1" vertex="1">
          <mxGeometry x="360" y="240" width="80" height="40" as="geometry" />
        </mxCell>
        <mxCell id="CpuPMyb-1w2UGZgQBSjq-19" value="" style="endArrow=classic;html=1;rounded=0;dashed=1;entryX=0;entryY=0.5;entryDx=0;entryDy=0;exitX=0.5;exitY=1;exitDx=0;exitDy=0;fontSize=10;" parent="1" source="CpuPMyb-1w2UGZgQBSjq-11" target="CpuPMyb-1w2UGZgQBSjq-18" edge="1">
          <mxGeometry width="50" height="50" relative="1" as="geometry">
            <mxPoint x="280" y="300" as="sourcePoint" />
            <mxPoint x="330" y="260" as="targetPoint" />
          </mxGeometry>
        </mxCell>
        <mxCell id="CpuPMyb-1w2UGZgQBSjq-20" value="&amp;lt;&amp;lt;include&amp;gt;&amp;gt;" style="text;html=1;align=center;verticalAlign=middle;resizable=0;points=[];autosize=1;strokeColor=none;fillColor=none;fontSize=10;" parent="1" vertex="1">
          <mxGeometry x="280" y="230" width="80" height="30" as="geometry" />
        </mxCell>
        <mxCell id="CpuPMyb-1w2UGZgQBSjq-22" value="Tambah Data Galeri" style="ellipse;whiteSpace=wrap;html=1;fontSize=10;" parent="1" vertex="1">
          <mxGeometry x="250" y="360" width="80" height="40" as="geometry" />
        </mxCell>
        <mxCell id="CpuPMyb-1w2UGZgQBSjq-23" value="Edit Data Galeri" style="ellipse;whiteSpace=wrap;html=1;fontSize=10;" parent="1" vertex="1">
          <mxGeometry x="345" y="400" width="80" height="40" as="geometry" />
        </mxCell>
        <mxCell id="CpuPMyb-1w2UGZgQBSjq-24" value="Hapus Data Galeri" style="ellipse;whiteSpace=wrap;html=1;fontSize=10;" parent="1" vertex="1">
          <mxGeometry x="350" y="460" width="80" height="40" as="geometry" />
        </mxCell>
        <mxCell id="CpuPMyb-1w2UGZgQBSjq-25" value="&amp;lt;&amp;lt;include&amp;gt;&amp;gt;" style="text;html=1;align=center;verticalAlign=middle;resizable=0;points=[];autosize=1;strokeColor=none;fillColor=none;fontSize=10;" parent="1" vertex="1">
          <mxGeometry x="300" y="430" width="80" height="30" as="geometry" />
        </mxCell>
        <mxCell id="CpuPMyb-1w2UGZgQBSjq-26" value="&amp;lt;&amp;lt;include&amp;gt;&amp;gt;" style="text;html=1;align=center;verticalAlign=middle;resizable=0;points=[];autosize=1;strokeColor=none;fillColor=none;fontSize=10;" parent="1" vertex="1">
          <mxGeometry x="220" y="340" width="80" height="30" as="geometry" />
        </mxCell>
        <mxCell id="CpuPMyb-1w2UGZgQBSjq-27" value="&amp;lt;&amp;lt;include&amp;gt;&amp;gt;" style="text;html=1;align=center;verticalAlign=middle;resizable=0;points=[];autosize=1;strokeColor=none;fillColor=none;fontSize=10;" parent="1" vertex="1">
          <mxGeometry x="285" y="390" width="80" height="30" as="geometry" />
        </mxCell>
        <mxCell id="CpuPMyb-1w2UGZgQBSjq-28" value="Lihat Data Galeri" style="ellipse;whiteSpace=wrap;html=1;fontSize=10;" parent="1" vertex="1">
          <mxGeometry x="150" y="340" width="80" height="40" as="geometry" />
        </mxCell>
        <mxCell id="CpuPMyb-1w2UGZgQBSjq-31" value="" style="endArrow=classic;html=1;rounded=0;dashed=1;exitX=1;exitY=0.5;exitDx=0;exitDy=0;fontSize=10;entryX=0;entryY=0;entryDx=0;entryDy=0;" parent="1" source="CpuPMyb-1w2UGZgQBSjq-28" edge="1" target="CpuPMyb-1w2UGZgQBSjq-22">
          <mxGeometry width="50" height="50" relative="1" as="geometry">
            <mxPoint x="215" y="450" as="sourcePoint" />
            <mxPoint x="265" y="400" as="targetPoint" />
          </mxGeometry>
        </mxCell>
        <mxCell id="CpuPMyb-1w2UGZgQBSjq-32" value="" style="endArrow=classic;html=1;rounded=0;exitX=0.729;exitY=1.029;exitDx=0;exitDy=0;entryX=0;entryY=0.5;entryDx=0;entryDy=0;dashed=1;fontSize=10;exitPerimeter=0;" parent="1" source="CpuPMyb-1w2UGZgQBSjq-28" target="CpuPMyb-1w2UGZgQBSjq-23" edge="1">
          <mxGeometry width="50" height="50" relative="1" as="geometry">
            <mxPoint x="255" y="480" as="sourcePoint" />
            <mxPoint x="305" y="430" as="targetPoint" />
            <Array as="points">
              <mxPoint x="280" y="410" />
            </Array>
          </mxGeometry>
        </mxCell>
        <mxCell id="CpuPMyb-1w2UGZgQBSjq-33" value="" style="endArrow=classic;html=1;rounded=0;entryX=0;entryY=0.5;entryDx=0;entryDy=0;dashed=1;exitX=0.5;exitY=1;exitDx=0;exitDy=0;fontSize=10;" parent="1" source="CpuPMyb-1w2UGZgQBSjq-28" target="CpuPMyb-1w2UGZgQBSjq-24" edge="1">
          <mxGeometry width="50" height="50" relative="1" as="geometry">
            <mxPoint x="215" y="490" as="sourcePoint" />
            <mxPoint x="265" y="440" as="targetPoint" />
          </mxGeometry>
        </mxCell>
        <mxCell id="CpuPMyb-1w2UGZgQBSjq-34" value="Lihat Data Artikel" style="ellipse;whiteSpace=wrap;html=1;fontSize=10;" parent="1" vertex="1">
          <mxGeometry x="140" y="400" width="80" height="40" as="geometry" />
        </mxCell>
        <mxCell id="CpuPMyb-1w2UGZgQBSjq-35" value="Tambah Data Artikel" style="ellipse;whiteSpace=wrap;html=1;fontSize=10;" parent="1" vertex="1">
          <mxGeometry x="240" y="460" width="80" height="40" as="geometry" />
        </mxCell>
        <mxCell id="CpuPMyb-1w2UGZgQBSjq-36" value="" style="endArrow=classic;html=1;rounded=0;dashed=1;entryX=0;entryY=0.5;entryDx=0;entryDy=0;fontSize=10;exitX=1;exitY=0.5;exitDx=0;exitDy=0;" parent="1" target="CpuPMyb-1w2UGZgQBSjq-35" edge="1" source="CpuPMyb-1w2UGZgQBSjq-34">
          <mxGeometry width="50" height="50" relative="1" as="geometry">
            <mxPoint x="225" y="560" as="sourcePoint" />
            <mxPoint x="275" y="510" as="targetPoint" />
          </mxGeometry>
        </mxCell>
        <mxCell id="CpuPMyb-1w2UGZgQBSjq-37" value="&amp;lt;&amp;lt;include&amp;gt;&amp;gt;" style="text;html=1;align=center;verticalAlign=middle;resizable=0;points=[];autosize=1;strokeColor=none;fillColor=none;fontSize=10;" parent="1" vertex="1">
          <mxGeometry x="220" y="430" width="80" height="30" as="geometry" />
        </mxCell>
        <mxCell id="CpuPMyb-1w2UGZgQBSjq-38" value="Edit Data Artikel" style="ellipse;whiteSpace=wrap;html=1;fontSize=10;" parent="1" vertex="1">
          <mxGeometry x="300" y="510" width="80" height="40" as="geometry" />
        </mxCell>
        <mxCell id="CpuPMyb-1w2UGZgQBSjq-39" value="" style="endArrow=classic;html=1;rounded=0;dashed=1;fontSize=10;exitX=0.736;exitY=0.912;exitDx=0;exitDy=0;exitPerimeter=0;entryX=0;entryY=0.5;entryDx=0;entryDy=0;" parent="1" edge="1" target="CpuPMyb-1w2UGZgQBSjq-38" source="CpuPMyb-1w2UGZgQBSjq-34">
          <mxGeometry width="50" height="50" relative="1" as="geometry">
            <mxPoint x="265" y="580" as="sourcePoint" />
            <mxPoint x="345" y="540" as="targetPoint" />
            <Array as="points">
              <mxPoint x="240" y="520" />
            </Array>
          </mxGeometry>
        </mxCell>
        <mxCell id="CpuPMyb-1w2UGZgQBSjq-40" value="&amp;lt;&amp;lt;include&amp;gt;&amp;gt;" style="text;html=1;align=center;verticalAlign=middle;resizable=0;points=[];autosize=1;strokeColor=none;fillColor=none;fontSize=10;" parent="1" vertex="1">
          <mxGeometry x="170" y="500" width="80" height="30" as="geometry" />
        </mxCell>
        <mxCell id="CpuPMyb-1w2UGZgQBSjq-41" value="Hapus Data Artikel" style="ellipse;whiteSpace=wrap;html=1;fontSize=10;" parent="1" vertex="1">
          <mxGeometry x="210" y="530" width="80" height="40" as="geometry" />
        </mxCell>
        <mxCell id="CpuPMyb-1w2UGZgQBSjq-42" value="&amp;lt;&amp;lt;include&amp;gt;&amp;gt;" style="text;html=1;align=center;verticalAlign=middle;resizable=0;points=[];autosize=1;strokeColor=none;fillColor=none;fontSize=10;" parent="1" vertex="1">
          <mxGeometry x="230" y="500" width="80" height="30" as="geometry" />
        </mxCell>
        <mxCell id="CpuPMyb-1w2UGZgQBSjq-43" value="" style="endArrow=classic;html=1;rounded=0;exitX=0.5;exitY=1;exitDx=0;exitDy=0;entryX=0;entryY=0.5;entryDx=0;entryDy=0;dashed=1;fontSize=10;" parent="1" source="CpuPMyb-1w2UGZgQBSjq-34" target="CpuPMyb-1w2UGZgQBSjq-41" edge="1">
          <mxGeometry width="50" height="50" relative="1" as="geometry">
            <mxPoint x="225" y="640" as="sourcePoint" />
            <mxPoint x="275" y="590" as="targetPoint" />
            <Array as="points">
              <mxPoint x="180" y="520" />
            </Array>
          </mxGeometry>
        </mxCell>
        <mxCell id="CpuPMyb-1w2UGZgQBSjq-44" style="rounded=0;orthogonalLoop=1;jettySize=auto;html=1;exitX=1;exitY=0.3333333333333333;exitDx=0;exitDy=0;exitPerimeter=0;entryX=0;entryY=0;entryDx=0;entryDy=0;endArrow=none;endFill=0;fontSize=10;" parent="1" source="p_7tX5edI_VlVgQaroJx-1" target="CpuPMyb-1w2UGZgQBSjq-34" edge="1">
          <mxGeometry relative="1" as="geometry">
            <mxPoint x="170" y="277" as="sourcePoint" />
            <mxPoint x="210" y="370" as="targetPoint" />
          </mxGeometry>
        </mxCell>
        <mxCell id="CpuPMyb-1w2UGZgQBSjq-45" value="Lihat Data Testimoni" style="ellipse;whiteSpace=wrap;html=1;fontSize=10;" parent="1" vertex="1">
          <mxGeometry x="195" y="580" width="80" height="40" as="geometry" />
        </mxCell>
        <mxCell id="CpuPMyb-1w2UGZgQBSjq-46" value="Hapus Data Testimoni" style="ellipse;whiteSpace=wrap;html=1;fontSize=10;" parent="1" vertex="1">
          <mxGeometry x="310" y="560" width="80" height="40" as="geometry" />
        </mxCell>
        <mxCell id="CpuPMyb-1w2UGZgQBSjq-47" value="" style="endArrow=classic;html=1;rounded=0;dashed=1;entryX=0;entryY=0.5;entryDx=0;entryDy=0;fontSize=10;exitX=1;exitY=0;exitDx=0;exitDy=0;" parent="1" target="CpuPMyb-1w2UGZgQBSjq-46" edge="1" source="CpuPMyb-1w2UGZgQBSjq-45">
          <mxGeometry width="50" height="50" relative="1" as="geometry">
            <mxPoint x="240" y="630" as="sourcePoint" />
            <mxPoint x="290" y="580" as="targetPoint" />
          </mxGeometry>
        </mxCell>
        <mxCell id="CpuPMyb-1w2UGZgQBSjq-48" value="&amp;lt;&amp;lt;include&amp;gt;&amp;gt;" style="text;html=1;align=center;verticalAlign=middle;resizable=0;points=[];autosize=1;strokeColor=none;fillColor=none;fontSize=10;" parent="1" vertex="1">
          <mxGeometry x="240" y="560" width="80" height="30" as="geometry" />
        </mxCell>
        <mxCell id="CpuPMyb-1w2UGZgQBSjq-49" value="Hapus Data Contact" style="ellipse;whiteSpace=wrap;html=1;fontSize=10;" parent="1" vertex="1">
          <mxGeometry x="320" y="610" width="80" height="40" as="geometry" />
        </mxCell>
        <mxCell id="CpuPMyb-1w2UGZgQBSjq-50" value="" style="endArrow=classic;html=1;rounded=0;dashed=1;fontSize=10;exitX=0.004;exitY=0.178;exitDx=0;exitDy=0;exitPerimeter=0;entryX=0;entryY=0.5;entryDx=0;entryDy=0;" parent="1" edge="1" target="CpuPMyb-1w2UGZgQBSjq-49" source="CpuPMyb-1w2UGZgQBSjq-51">
          <mxGeometry width="50" height="50" relative="1" as="geometry">
            <mxPoint x="280" y="650" as="sourcePoint" />
            <mxPoint x="360" y="610" as="targetPoint" />
          </mxGeometry>
        </mxCell>
        <mxCell id="CpuPMyb-1w2UGZgQBSjq-51" value="&amp;lt;&amp;lt;include&amp;gt;&amp;gt;" style="text;html=1;align=center;verticalAlign=middle;resizable=0;points=[];autosize=1;strokeColor=none;fillColor=none;fontSize=10;" parent="1" vertex="1">
          <mxGeometry x="265" y="640" width="80" height="30" as="geometry" />
        </mxCell>
        <mxCell id="CpuPMyb-1w2UGZgQBSjq-52" value="Hapus Data Appointment" style="ellipse;whiteSpace=wrap;html=1;fontSize=10;" parent="1" vertex="1">
          <mxGeometry x="320" y="670" width="80" height="40" as="geometry" />
        </mxCell>
        <mxCell id="CpuPMyb-1w2UGZgQBSjq-53" value="&amp;lt;&amp;lt;include&amp;gt;&amp;gt;" style="text;html=1;align=center;verticalAlign=middle;resizable=0;points=[];autosize=1;strokeColor=none;fillColor=none;fontSize=10;" parent="1" vertex="1">
          <mxGeometry x="250" y="670" width="80" height="30" as="geometry" />
        </mxCell>
        <mxCell id="CpuPMyb-1w2UGZgQBSjq-54" value="" style="endArrow=classic;html=1;rounded=0;exitX=1;exitY=0.5;exitDx=0;exitDy=0;entryX=0;entryY=0.5;entryDx=0;entryDy=0;dashed=1;fontSize=10;" parent="1" source="uciX4Eg7__3NdHYNUk7G-18" target="CpuPMyb-1w2UGZgQBSjq-52" edge="1">
          <mxGeometry width="50" height="50" relative="1" as="geometry">
            <mxPoint x="240" y="710" as="sourcePoint" />
            <mxPoint x="360" y="670" as="targetPoint" />
          </mxGeometry>
        </mxCell>
        <mxCell id="CpuPMyb-1w2UGZgQBSjq-55" style="rounded=0;orthogonalLoop=1;jettySize=auto;html=1;exitX=1;exitY=0.3333333333333333;exitDx=0;exitDy=0;exitPerimeter=0;entryX=0;entryY=0.5;entryDx=0;entryDy=0;endArrow=none;endFill=0;fontSize=10;" parent="1" source="p_7tX5edI_VlVgQaroJx-1" target="CpuPMyb-1w2UGZgQBSjq-45" edge="1">
          <mxGeometry relative="1" as="geometry">
            <mxPoint x="160" y="390" as="sourcePoint" />
            <mxPoint x="210" y="493" as="targetPoint" />
            <Array as="points">
              <mxPoint x="140" y="460" />
            </Array>
          </mxGeometry>
        </mxCell>
        <mxCell id="uciX4Eg7__3NdHYNUk7G-4" value="Edit Data Transaksi Paket Wedding" style="ellipse;whiteSpace=wrap;html=1;fontSize=10;" vertex="1" parent="1">
          <mxGeometry x="360" y="300" width="80" height="40" as="geometry" />
        </mxCell>
        <mxCell id="uciX4Eg7__3NdHYNUk7G-5" value="" style="endArrow=classic;html=1;rounded=0;dashed=1;entryX=0;entryY=0.5;entryDx=0;entryDy=0;fontSize=10;exitX=1;exitY=0.5;exitDx=0;exitDy=0;" edge="1" target="uciX4Eg7__3NdHYNUk7G-4" parent="1" source="uciX4Eg7__3NdHYNUk7G-13">
          <mxGeometry width="50" height="50" relative="1" as="geometry">
            <mxPoint x="265" y="360" as="sourcePoint" />
            <mxPoint x="315" y="320" as="targetPoint" />
          </mxGeometry>
        </mxCell>
        <mxCell id="uciX4Eg7__3NdHYNUk7G-6" value="&amp;lt;&amp;lt;include&amp;gt;&amp;gt;" style="text;html=1;align=center;verticalAlign=middle;resizable=0;points=[];autosize=1;strokeColor=none;fillColor=none;fontSize=10;" vertex="1" parent="1">
          <mxGeometry x="275" y="270" width="80" height="30" as="geometry" />
        </mxCell>
        <mxCell id="uciX4Eg7__3NdHYNUk7G-7" value="Hapus Data Transaksi Paket Wedding" style="ellipse;whiteSpace=wrap;html=1;fontSize=10;" vertex="1" parent="1">
          <mxGeometry x="355" y="350" width="80" height="40" as="geometry" />
        </mxCell>
        <mxCell id="uciX4Eg7__3NdHYNUk7G-8" value="" style="endArrow=classic;html=1;rounded=0;dashed=1;entryX=0;entryY=0.5;entryDx=0;entryDy=0;exitX=0.5;exitY=1;exitDx=0;exitDy=0;fontSize=10;" edge="1" source="uciX4Eg7__3NdHYNUk7G-13" target="uciX4Eg7__3NdHYNUk7G-7" parent="1">
          <mxGeometry width="50" height="50" relative="1" as="geometry">
            <mxPoint x="265" y="420" as="sourcePoint" />
            <mxPoint x="315" y="380" as="targetPoint" />
          </mxGeometry>
        </mxCell>
        <mxCell id="uciX4Eg7__3NdHYNUk7G-9" value="&amp;lt;&amp;lt;include&amp;gt;&amp;gt;" style="text;html=1;align=center;verticalAlign=middle;resizable=0;points=[];autosize=1;strokeColor=none;fillColor=none;fontSize=10;" vertex="1" parent="1">
          <mxGeometry x="265" y="320" width="80" height="30" as="geometry" />
        </mxCell>
        <mxCell id="uciX4Eg7__3NdHYNUk7G-12" style="rounded=0;orthogonalLoop=1;jettySize=auto;html=1;exitX=1;exitY=0.3333333333333333;exitDx=0;exitDy=0;exitPerimeter=0;entryX=0;entryY=0.5;entryDx=0;entryDy=0;endArrow=none;endFill=0;fontSize=10;" edge="1" target="uciX4Eg7__3NdHYNUk7G-13" parent="1" source="p_7tX5edI_VlVgQaroJx-1">
          <mxGeometry relative="1" as="geometry">
            <mxPoint x="95" y="387" as="sourcePoint" />
          </mxGeometry>
        </mxCell>
        <mxCell id="uciX4Eg7__3NdHYNUk7G-13" value="Lihat Data Transaksi Paket Wedding" style="ellipse;whiteSpace=wrap;html=1;fontSize=10;" vertex="1" parent="1">
          <mxGeometry x="195" y="280" width="80" height="40" as="geometry" />
        </mxCell>
        <mxCell id="uciX4Eg7__3NdHYNUk7G-17" value="Lihat Data Contact" style="ellipse;whiteSpace=wrap;html=1;fontSize=10;" vertex="1" parent="1">
          <mxGeometry x="195" y="635" width="80" height="40" as="geometry" />
        </mxCell>
        <mxCell id="uciX4Eg7__3NdHYNUk7G-18" value="Lihat Data Appointment" style="ellipse;whiteSpace=wrap;html=1;fontSize=10;" vertex="1" parent="1">
          <mxGeometry x="200" y="690" width="80" height="40" as="geometry" />
        </mxCell>
        <mxCell id="uciX4Eg7__3NdHYNUk7G-20" style="rounded=0;orthogonalLoop=1;jettySize=auto;html=1;exitX=1;exitY=0.3333333333333333;exitDx=0;exitDy=0;exitPerimeter=0;entryX=0;entryY=0.5;entryDx=0;entryDy=0;endArrow=none;endFill=0;fontSize=10;" edge="1" parent="1" source="p_7tX5edI_VlVgQaroJx-1" target="uciX4Eg7__3NdHYNUk7G-17">
          <mxGeometry relative="1" as="geometry">
            <mxPoint x="120" y="277" as="sourcePoint" />
            <mxPoint x="205" y="610" as="targetPoint" />
            <Array as="points">
              <mxPoint x="130" y="480" />
            </Array>
          </mxGeometry>
        </mxCell>
        <mxCell id="uciX4Eg7__3NdHYNUk7G-21" style="rounded=0;orthogonalLoop=1;jettySize=auto;html=1;entryX=0;entryY=0.5;entryDx=0;entryDy=0;endArrow=none;endFill=0;fontSize=10;exitX=1;exitY=0.3333333333333333;exitDx=0;exitDy=0;exitPerimeter=0;" edge="1" parent="1" source="p_7tX5edI_VlVgQaroJx-1" target="uciX4Eg7__3NdHYNUk7G-18">
          <mxGeometry relative="1" as="geometry">
            <mxPoint x="110" y="270" as="sourcePoint" />
            <mxPoint x="205" y="665" as="targetPoint" />
            <Array as="points">
              <mxPoint x="120" y="500" />
            </Array>
          </mxGeometry>
        </mxCell>
      </root>
    </mxGraphModel>
  </diagram>
  <diagram id="ZKXZZFiLEvCragS1WWe5" name="user">
    <mxGraphModel dx="1116" dy="591" grid="1" gridSize="10" guides="1" tooltips="1" connect="1" arrows="1" fold="1" page="1" pageScale="1" pageWidth="850" pageHeight="1100" math="0" shadow="0">
      <root>
        <mxCell id="0" />
        <mxCell id="1" parent="0" />
        <mxCell id="YbqMbkO5pbE7KwBr6-NF-1" value="" style="rounded=0;whiteSpace=wrap;html=1;" vertex="1" parent="1">
          <mxGeometry x="120" y="100" width="310" height="490" as="geometry" />
        </mxCell>
        <mxCell id="YbqMbkO5pbE7KwBr6-NF-2" style="rounded=0;orthogonalLoop=1;jettySize=auto;html=1;entryX=0;entryY=0.5;entryDx=0;entryDy=0;exitX=1;exitY=0.3333333333333333;exitDx=0;exitDy=0;exitPerimeter=0;endArrow=none;endFill=0;fontSize=10;" edge="1" parent="1" source="YbqMbkO5pbE7KwBr6-NF-5" target="YbqMbkO5pbE7KwBr6-NF-6">
          <mxGeometry relative="1" as="geometry">
            <mxPoint x="180" y="186.66666666666663" as="sourcePoint" />
          </mxGeometry>
        </mxCell>
        <mxCell id="YbqMbkO5pbE7KwBr6-NF-3" style="rounded=0;orthogonalLoop=1;jettySize=auto;html=1;exitX=1;exitY=0.3333333333333333;exitDx=0;exitDy=0;exitPerimeter=0;entryX=0;entryY=0.5;entryDx=0;entryDy=0;endArrow=none;endFill=0;fontSize=10;" edge="1" parent="1" source="YbqMbkO5pbE7KwBr6-NF-5" target="YbqMbkO5pbE7KwBr6-NF-10">
          <mxGeometry relative="1" as="geometry" />
        </mxCell>
        <mxCell id="YbqMbkO5pbE7KwBr6-NF-5" value="User" style="shape=umlActor;verticalLabelPosition=bottom;verticalAlign=top;html=1;outlineConnect=0;fontSize=10;" vertex="1" parent="1">
          <mxGeometry x="60" y="240" width="40" height="80" as="geometry" />
        </mxCell>
        <mxCell id="YbqMbkO5pbE7KwBr6-NF-6" value="Tambah Data Appointment" style="ellipse;whiteSpace=wrap;html=1;fontSize=10;" vertex="1" parent="1">
          <mxGeometry x="200" y="120" width="80" height="40" as="geometry" />
        </mxCell>
        <mxCell id="YbqMbkO5pbE7KwBr6-NF-10" value="Lihat Paket Wedding" style="ellipse;whiteSpace=wrap;html=1;fontSize=10;" vertex="1" parent="1">
          <mxGeometry x="200" y="227" width="80" height="40" as="geometry" />
        </mxCell>
        <mxCell id="YbqMbkO5pbE7KwBr6-NF-11" value="Tambah Data Contact" style="ellipse;whiteSpace=wrap;html=1;fontSize=10;" vertex="1" parent="1">
          <mxGeometry x="200" y="170" width="80" height="40" as="geometry" />
        </mxCell>
        <mxCell id="YbqMbkO5pbE7KwBr6-NF-41" value="Login" style="ellipse;whiteSpace=wrap;html=1;fontSize=10;" vertex="1" parent="1">
          <mxGeometry x="200" y="440" width="80" height="40" as="geometry" />
        </mxCell>
        <mxCell id="YbqMbkO5pbE7KwBr6-NF-42" value="Logout" style="ellipse;whiteSpace=wrap;html=1;fontSize=10;" vertex="1" parent="1">
          <mxGeometry x="310" y="410" width="80" height="40" as="geometry" />
        </mxCell>
        <mxCell id="YbqMbkO5pbE7KwBr6-NF-43" value="" style="endArrow=classic;html=1;rounded=0;dashed=1;entryX=0;entryY=0.5;entryDx=0;entryDy=0;fontSize=10;exitX=1;exitY=0.5;exitDx=0;exitDy=0;" edge="1" parent="1" source="YbqMbkO5pbE7KwBr6-NF-41" target="YbqMbkO5pbE7KwBr6-NF-42">
          <mxGeometry width="50" height="50" relative="1" as="geometry">
            <mxPoint x="250" y="672" as="sourcePoint" />
            <mxPoint x="300" y="622" as="targetPoint" />
          </mxGeometry>
        </mxCell>
        <mxCell id="YbqMbkO5pbE7KwBr6-NF-44" value="&amp;lt;&amp;lt;include&amp;gt;&amp;gt;" style="text;html=1;align=center;verticalAlign=middle;resizable=0;points=[];autosize=1;strokeColor=none;fillColor=none;fontSize=10;" vertex="1" parent="1">
          <mxGeometry x="230" y="415" width="80" height="30" as="geometry" />
        </mxCell>
        <mxCell id="YbqMbkO5pbE7KwBr6-NF-45" value="Lihat Histori Transaksi" style="ellipse;whiteSpace=wrap;html=1;fontSize=10;" vertex="1" parent="1">
          <mxGeometry x="320" y="460" width="80" height="40" as="geometry" />
        </mxCell>
        <mxCell id="YbqMbkO5pbE7KwBr6-NF-46" value="" style="endArrow=classic;html=1;rounded=0;dashed=1;fontSize=10;exitX=0.004;exitY=0.178;exitDx=0;exitDy=0;exitPerimeter=0;entryX=0;entryY=0.5;entryDx=0;entryDy=0;" edge="1" parent="1" source="YbqMbkO5pbE7KwBr6-NF-47" target="YbqMbkO5pbE7KwBr6-NF-45">
          <mxGeometry width="50" height="50" relative="1" as="geometry">
            <mxPoint x="255" y="500" as="sourcePoint" />
            <mxPoint x="335" y="460" as="targetPoint" />
          </mxGeometry>
        </mxCell>
        <mxCell id="YbqMbkO5pbE7KwBr6-NF-47" value="&amp;lt;&amp;lt;include&amp;gt;&amp;gt;" style="text;html=1;align=center;verticalAlign=middle;resizable=0;points=[];autosize=1;strokeColor=none;fillColor=none;fontSize=10;" vertex="1" parent="1">
          <mxGeometry x="270" y="495" width="80" height="30" as="geometry" />
        </mxCell>
        <mxCell id="YbqMbkO5pbE7KwBr6-NF-51" style="rounded=0;orthogonalLoop=1;jettySize=auto;html=1;exitX=1;exitY=0.3333333333333333;exitDx=0;exitDy=0;exitPerimeter=0;entryX=0;entryY=0.5;entryDx=0;entryDy=0;endArrow=none;endFill=0;fontSize=10;" edge="1" parent="1" source="YbqMbkO5pbE7KwBr6-NF-5" target="YbqMbkO5pbE7KwBr6-NF-41">
          <mxGeometry relative="1" as="geometry">
            <mxPoint x="160" y="390" as="sourcePoint" />
            <mxPoint x="210" y="493" as="targetPoint" />
            <Array as="points">
              <mxPoint x="140" y="460" />
            </Array>
          </mxGeometry>
        </mxCell>
        <mxCell id="YbqMbkO5pbE7KwBr6-NF-60" value="Tambah Data Transaksi" style="ellipse;whiteSpace=wrap;html=1;fontSize=10;" vertex="1" parent="1">
          <mxGeometry x="200" y="485" width="80" height="40" as="geometry" />
        </mxCell>
        <mxCell id="YbqMbkO5pbE7KwBr6-NF-61" value="Tambah Data Testimoni" style="ellipse;whiteSpace=wrap;html=1;fontSize=10;" vertex="1" parent="1">
          <mxGeometry x="200" y="530" width="80" height="40" as="geometry" />
        </mxCell>
        <mxCell id="YbqMbkO5pbE7KwBr6-NF-62" style="rounded=0;orthogonalLoop=1;jettySize=auto;html=1;exitX=1;exitY=0.3333333333333333;exitDx=0;exitDy=0;exitPerimeter=0;entryX=0;entryY=0.5;entryDx=0;entryDy=0;endArrow=none;endFill=0;fontSize=10;" edge="1" parent="1" source="YbqMbkO5pbE7KwBr6-NF-5" target="YbqMbkO5pbE7KwBr6-NF-60">
          <mxGeometry relative="1" as="geometry">
            <mxPoint x="120" y="277" as="sourcePoint" />
            <mxPoint x="205" y="610" as="targetPoint" />
            <Array as="points">
              <mxPoint x="130" y="480" />
            </Array>
          </mxGeometry>
        </mxCell>
        <mxCell id="YbqMbkO5pbE7KwBr6-NF-63" style="rounded=0;orthogonalLoop=1;jettySize=auto;html=1;entryX=0;entryY=0.5;entryDx=0;entryDy=0;endArrow=none;endFill=0;fontSize=10;exitX=1;exitY=0.3333333333333333;exitDx=0;exitDy=0;exitPerimeter=0;" edge="1" parent="1" source="YbqMbkO5pbE7KwBr6-NF-5" target="YbqMbkO5pbE7KwBr6-NF-61">
          <mxGeometry relative="1" as="geometry">
            <mxPoint x="110" y="270" as="sourcePoint" />
            <mxPoint x="205" y="665" as="targetPoint" />
            <Array as="points">
              <mxPoint x="120" y="500" />
            </Array>
          </mxGeometry>
        </mxCell>
        <mxCell id="YbqMbkO5pbE7KwBr6-NF-64" style="rounded=0;orthogonalLoop=1;jettySize=auto;html=1;entryX=0;entryY=0.5;entryDx=0;entryDy=0;endArrow=none;endFill=0;fontSize=10;exitX=1;exitY=0.3333333333333333;exitDx=0;exitDy=0;exitPerimeter=0;" edge="1" parent="1" source="YbqMbkO5pbE7KwBr6-NF-5" target="YbqMbkO5pbE7KwBr6-NF-11">
          <mxGeometry relative="1" as="geometry">
            <mxPoint x="100" y="270" as="sourcePoint" />
            <mxPoint x="210" y="150" as="targetPoint" />
          </mxGeometry>
        </mxCell>
        <mxCell id="YbqMbkO5pbE7KwBr6-NF-65" value="Lihat&amp;nbsp; Testimoni" style="ellipse;whiteSpace=wrap;html=1;fontSize=10;" vertex="1" parent="1">
          <mxGeometry x="200" y="280" width="80" height="40" as="geometry" />
        </mxCell>
        <mxCell id="YbqMbkO5pbE7KwBr6-NF-66" value="Lihat Artikel" style="ellipse;whiteSpace=wrap;html=1;fontSize=10;" vertex="1" parent="1">
          <mxGeometry x="200" y="330" width="80" height="40" as="geometry" />
        </mxCell>
        <mxCell id="YbqMbkO5pbE7KwBr6-NF-67" value="Lihat Galeri" style="ellipse;whiteSpace=wrap;html=1;fontSize=10;" vertex="1" parent="1">
          <mxGeometry x="200" y="385" width="80" height="40" as="geometry" />
        </mxCell>
        <mxCell id="YbqMbkO5pbE7KwBr6-NF-68" style="rounded=0;orthogonalLoop=1;jettySize=auto;html=1;exitX=1;exitY=0.3333333333333333;exitDx=0;exitDy=0;exitPerimeter=0;entryX=0;entryY=0.5;entryDx=0;entryDy=0;endArrow=none;endFill=0;fontSize=10;" edge="1" parent="1" source="YbqMbkO5pbE7KwBr6-NF-5" target="YbqMbkO5pbE7KwBr6-NF-65">
          <mxGeometry relative="1" as="geometry">
            <mxPoint x="110" y="277" as="sourcePoint" />
            <mxPoint x="180" y="257" as="targetPoint" />
          </mxGeometry>
        </mxCell>
        <mxCell id="YbqMbkO5pbE7KwBr6-NF-69" style="rounded=0;orthogonalLoop=1;jettySize=auto;html=1;exitX=1;exitY=0.3333333333333333;exitDx=0;exitDy=0;exitPerimeter=0;entryX=0;entryY=0.5;entryDx=0;entryDy=0;endArrow=none;endFill=0;fontSize=10;" edge="1" parent="1" source="YbqMbkO5pbE7KwBr6-NF-5" target="YbqMbkO5pbE7KwBr6-NF-66">
          <mxGeometry relative="1" as="geometry">
            <mxPoint x="100" y="320" as="sourcePoint" />
            <mxPoint x="170" y="353" as="targetPoint" />
          </mxGeometry>
        </mxCell>
        <mxCell id="YbqMbkO5pbE7KwBr6-NF-70" style="rounded=0;orthogonalLoop=1;jettySize=auto;html=1;exitX=1;exitY=0.3333333333333333;exitDx=0;exitDy=0;exitPerimeter=0;entryX=0;entryY=0.5;entryDx=0;entryDy=0;endArrow=none;endFill=0;fontSize=10;" edge="1" parent="1" source="YbqMbkO5pbE7KwBr6-NF-5" target="YbqMbkO5pbE7KwBr6-NF-67">
          <mxGeometry relative="1" as="geometry">
            <mxPoint x="100" y="320" as="sourcePoint" />
            <mxPoint x="170" y="406" as="targetPoint" />
          </mxGeometry>
        </mxCell>
      </root>
    </mxGraphModel>
  </diagram>
</mxfile>
